<mxfile host="app.diagrams.net" modified="2024-06-08T03:51:06.353Z" agent="Mozilla/5.0 (X11; Linux x86_64) AppleWebKit/537.36 (KHTML, like Gecko) Chrome/119.0.0.0 Safari/537.36" version="24.4.6" etag="Tpi8xCU6wCYqmmGUTKoK" type="github">
  <diagram name="Page-1" id="fbESP1bHvwPWGvWb19n-">
    <mxGraphModel>
      <root>
        <mxCell id="0" />
        <mxCell id="1" parent="0" />
      </root>
    </mxGraphModel>
  </diagram>
</mxfile>
